<svg width="25" height="25" viewBox="0 0 25 25" fill="none" xmlns="http://www.w3.org/2000/svg">
<g clip-path="url(#clip0_615_2198)">
<path d="M0.942934 0.628092C0.446934 0.892092 0.478934 0.140091 0.478934 12.5001C0.478934 22.4361 0.494934 23.8201 0.598934 24.0201C0.862934 24.5321 0.0789336 24.5001 12.4789 24.5001C22.4149 24.5001 23.7989 24.4841 23.9989 24.3801C24.5109 24.1161 24.4789 24.9001 24.4789 12.5001C24.4789 0.100092 24.5109 0.884092 23.9989 0.620092C23.7989 0.516092 22.4149 0.500093 12.4629 0.500093C2.62293 0.508093 1.12693 0.524092 0.942934 0.628092ZM6.64693 4.17209C6.83093 4.31609 6.83893 4.37209 6.86293 5.59609C6.88693 6.78809 6.87893 6.87609 6.71893 7.08409L6.55093 7.30009H5.07093C3.15093 7.30009 3.27893 7.42009 3.27893 5.68409C3.27893 3.91609 3.17493 4.02009 5.04693 4.02009C6.31893 4.02009 6.47893 4.03609 6.64693 4.17209ZM18.9509 9.16409C20.0629 9.56409 20.7829 10.1801 21.2149 11.1001C21.6309 12.0041 21.6709 12.4681 21.6789 16.6761C21.6789 20.3481 21.6709 20.5081 21.5269 20.6521C21.3109 20.8681 20.8469 20.9241 19.5589 20.8921C18.4709 20.8601 18.4629 20.8601 18.2709 20.6361L18.0789 20.4121V17.4361C18.0789 13.3721 17.9989 12.8281 17.3429 12.2121C16.8709 11.7641 16.5909 11.6601 15.8389 11.6601C15.2309 11.6601 15.0949 11.6921 14.6229 11.9241C13.9109 12.2761 13.4149 12.8201 13.1829 13.5241C13.0229 14.0281 13.0069 14.2521 12.9669 17.2201C12.9349 19.5001 12.8949 20.4281 12.8229 20.5481C12.6629 20.8281 12.2949 20.9001 11.1029 20.9001C9.85493 20.9001 9.49493 20.8041 9.35893 20.4521C9.30293 20.3161 9.28693 18.3641 9.29493 14.8921L9.31893 9.54809L9.50293 9.36409C9.67093 9.19609 9.76693 9.18009 10.7349 9.15609C12.4469 9.10809 12.6389 9.20409 12.6389 10.0521C12.6389 10.9081 12.7509 11.0041 13.2069 10.5321C13.3509 10.3721 13.6949 10.0921 13.9589 9.90009C15.0709 9.10809 15.8309 8.89209 17.3189 8.92409C18.1989 8.94809 18.4469 8.98809 18.9509 9.16409ZM6.68693 9.40409L6.87893 9.62809V15.0201V20.4121L6.68693 20.6361C6.49493 20.8601 6.48693 20.8601 5.39893 20.8921C4.11093 20.9241 3.64693 20.8681 3.43093 20.6521C3.28693 20.5081 3.27893 20.3241 3.27893 15.0361C3.27893 9.13209 3.27093 9.28409 3.70293 9.19609C3.79893 9.17209 4.47093 9.16409 5.18293 9.17209L6.49493 9.18009L6.68693 9.40409Z" fill="#082939"/>
</g>
<defs>
<clipPath id="clip0_615_2198">
<rect width="24" height="24" fill="white" transform="translate(0.478516 0.5)"/>
</clipPath>
</defs>
</svg>
