<svg width="24" height="25" viewBox="0 0 24 25" fill="none" xmlns="http://www.w3.org/2000/svg">
<path d="M9.89983 1.56218C6.47984 2.19169 3.49027 4.3871 1.92505 7.42448C1.41636 8.42382 1.07984 9.36022 0.845052 10.4382C0.602444 11.6028 0.602444 13.6566 0.852878 14.8212C1.50244 17.8664 3.13027 20.2979 5.67375 22.0133C6.78505 22.7687 8.12331 23.3196 9.62592 23.6422C10.792 23.894 12.8346 23.894 13.9851 23.6501C16.1451 23.1779 17.9607 22.2179 19.5024 20.7386C21.0911 19.1963 22.0929 17.4887 22.6172 15.4035C24.1511 9.34448 20.5668 3.33267 14.4781 1.74316C13.6564 1.52284 13.4451 1.49923 12.052 1.47562C10.9485 1.45989 10.3537 1.48349 9.89983 1.56218ZM13.4372 4.47366C15.0572 4.993 16.1216 6.23628 16.8103 8.44743C17.2407 9.82448 17.3346 10.5563 17.3346 12.6966C17.3346 14.2232 17.3033 14.774 17.1937 15.3327C16.7007 17.8428 15.7303 19.5661 14.3685 20.3687C13.6407 20.8015 13.0224 20.9746 12.0833 21.014C9.3207 21.1478 7.55201 19.6527 6.69897 16.4658C6.43288 15.4586 6.35462 14.9628 6.26853 13.7274C5.98679 9.73792 7.11375 6.25989 9.10157 5.00087C9.64157 4.65464 10.3303 4.3871 10.9172 4.27694C11.559 4.1589 12.7485 4.25333 13.4372 4.47366Z" fill="#082939"/>
<path d="M10.7451 10.029C10.166 10.2572 9.60254 10.7923 9.29732 11.4218C9.07037 11.8782 9.03906 12.0198 9.03906 12.5785C9.03906 13.3339 9.20341 13.8533 9.59471 14.349C10.4086 15.3798 11.786 15.7261 12.9443 15.191C14.3843 14.5221 15.0025 12.8146 14.306 11.3667C14.0556 10.8395 13.3982 10.2257 12.8738 10.029C12.2869 9.80868 11.3165 9.80868 10.7451 10.029Z" fill="#082939"/>
</svg>
