<svg width="25" height="25" viewBox="0 0 25 25" fill="none" xmlns="http://www.w3.org/2000/svg">
<g clip-path="url(#clip0_615_2195)">
<path d="M15.5286 3.04913C13.3739 3.84913 12.1046 5.79046 12.2326 8.1158L12.2752 8.84113L11.6246 8.76646C8.40325 8.41446 5.70458 7.14513 3.29392 4.84113C2.68592 4.26513 2.14192 3.81713 2.08858 3.8598C1.86458 3.98779 1.54458 5.32113 1.54458 6.08913C1.54458 7.55046 2.05658 8.79846 3.05925 9.73713L3.56058 10.2065H3.21925C2.92058 10.1958 2.24858 10.0038 1.61925 9.72646C1.43792 9.6518 1.42725 9.6838 1.49125 10.2705C1.71525 12.0625 2.98458 13.7051 4.60592 14.2811C5.41658 14.5691 5.28858 14.6651 4.08325 14.6758C3.48592 14.6865 3.25125 14.7291 3.25125 14.8145C3.25125 15.0918 3.93392 16.1371 4.43525 16.6171C5.05392 17.2251 6.26992 17.8545 6.99525 17.9505C7.28325 17.9931 7.54992 18.0571 7.57125 18.0998C7.70992 18.3131 5.65125 19.3798 4.34992 19.7638C3.63525 19.9771 3.05925 20.0625 1.97125 20.1158L0.53125 20.1798L1.75792 20.7771C4.13658 21.9505 5.89658 22.3238 8.63792 22.2278C9.57658 22.1958 10.6859 22.0891 11.0912 22.0038C15.9872 20.9051 19.7419 17.4918 21.3099 12.7131C21.7472 11.4011 21.9072 10.5478 22.0352 9.03313L22.1419 7.6358L23.0592 6.76113C23.9446 5.90779 24.4352 5.3318 24.3499 5.24646C24.3286 5.22513 23.9552 5.31046 23.5179 5.44913C23.0806 5.5878 22.5259 5.73713 22.2913 5.7798L21.8646 5.85446L22.5686 5.11846C23.2192 4.44646 23.9659 3.27313 23.7526 3.27313C23.6992 3.27313 23.3472 3.4118 22.9739 3.58246C22.0672 3.98779 20.8619 4.36113 20.7126 4.26513C20.6379 4.22246 20.3926 4.04113 20.1472 3.83846C19.9126 3.64646 19.4326 3.35846 19.0806 3.19846C18.5366 2.94246 18.2913 2.8998 17.2779 2.87846C16.3179 2.84646 15.9979 2.87846 15.5286 3.04913Z" fill="#082939"/>
</g>
<defs>
<clipPath id="clip0_615_2195">
<rect width="24" height="24" fill="white" transform="translate(0.478516 0.5)"/>
</clipPath>
</defs>
</svg>
